<?xml version="1.0" encoding="UTF-8" standalone="no"?>
<!DOCTYPE svg PUBLIC "-//W3C//DTD SVG 1.1//EN" "http://www.w3.org/Graphics/SVG/1.1/DTD/svg11.dtd">
<svg version="1.1" xmlns="http://www.w3.org/2000/svg" xmlns:xlink="http://www.w3.org/1999/xlink" preserveAspectRatio="xMidYMid meet" viewBox="0 0 681 681" width="681" height="681">
  <defs>
    <path d="M664.63 117.6C655.98 94.72 642.68 74.23 625.25 57.2C608.21 39.91 587.59 26.47 564.97 17.96C543.28 9.58 518.53 3.73 482.34 2.13C445.88 0.4 434.31 0 341.83 0C249.35 0 237.78 0.4 201.45 2C165.26 3.59 140.38 9.45 118.82 17.82C95.93 26.47 75.44 39.78 58.41 57.2C41.11 74.23 27.68 94.85 19.16 117.47C10.78 139.16 4.92 163.9 3.33 200.08C1.6 236.54 1.2 248.11 1.2 340.57C1.2 433.03 1.6 444.6 3.19 480.92C4.79 517.1 10.65 541.98 19.03 563.53C27.68 586.41 41.11 606.9 58.41 623.93C75.44 641.22 96.07 654.66 118.69 663.17C140.38 671.56 165.12 677.41 201.32 679C237.64 680.6 249.22 681 341.7 681C434.18 681 445.75 680.6 482.08 679C518.27 677.41 543.15 671.56 564.7 663.17C610.48 645.48 646.67 609.29 664.37 563.53C672.75 541.85 678.6 517.1 680.2 480.92C681.8 444.6 682.2 433.03 682.2 340.57C682.2 248.11 682.06 236.54 680.47 200.22C678.87 164.03 673.02 139.16 664.63 117.6ZM607.42 541.45C595.97 571.12 572.42 594.66 542.75 606.1C530.77 610.76 512.68 616.35 479.55 617.81C443.62 619.41 432.84 619.8 341.96 619.8C251.08 619.8 240.17 619.41 204.38 617.81C171.11 616.35 153.15 610.76 141.17 606.1C126.41 600.65 112.97 592 102.06 580.69C90.75 569.65 82.1 556.35 76.64 541.58C71.98 529.61 66.4 511.51 64.93 478.39C63.33 442.47 62.94 431.69 62.94 340.83C62.94 249.97 63.33 239.06 64.93 203.28C66.4 170.02 71.98 152.06 76.64 140.09C82.1 125.32 90.75 111.88 102.19 100.97C113.23 89.66 126.54 81.02 141.31 75.56C153.28 70.91 171.38 65.32 204.51 63.86C240.44 62.26 251.22 61.86 342.09 61.86C433.11 61.86 443.88 62.26 479.68 63.86C512.95 65.32 530.91 70.91 542.88 75.56C557.65 81.02 571.09 89.66 582 100.97C593.31 112.01 601.96 125.32 607.42 140.09C612.07 152.06 617.66 170.15 619.13 203.28C620.72 239.2 621.12 249.97 621.12 340.83C621.12 431.69 620.72 442.34 619.13 478.26C617.66 511.51 612.07 529.47 607.42 541.45Z" id="inst-big"></path>
    <path d="M166.82 340.57C166.82 437.15 245.18 515.51 341.76 515.51C438.35 515.51 516.7 437.15 516.7 340.57C516.7 243.98 438.35 165.63 341.76 165.63C245.18 165.63 166.82 243.98 166.82 340.57ZM228.28 340.57C228.28 277.91 279.11 227.09 341.76 227.09C404.42 227.09 455.24 277.91 455.24 340.57C455.24 403.23 404.42 454.05 341.76 454.05C279.11 454.05 228.28 403.23 228.28 340.57Z" id="inst-medium"></path>
    <path d="M523.62 199.55C501.07 199.55 482.78 181.26 482.78 158.71C482.78 136.15 501.07 117.87 523.62 117.87C546.18 117.87 564.46 136.15 564.46 158.71C564.46 181.26 546.18 199.55 523.62 199.55Z" id="inst-small"></path>
  </defs>
  <g>
        <use xlink:href="#inst-big" opacity="1" fill="dodgerblue" fill-opacity="1"></use>
        <g>
          <use xlink:href="#inst-big" opacity="1" fill-opacity="0" stroke="#000000" stroke-width="1" stroke-opacity="0"></use>
        </g>
      </g>
      <g>
        <use xlink:href="#inst-medium" opacity="1" fill="dodgerblue" fill-opacity="1"></use>
        <g>
          <use xlink:href="#inst-medium" opacity="1" fill-opacity="0" stroke="#000000" stroke-width="1" stroke-opacity="0"></use>
        </g>
      </g>
      <g>
        <use xlink:href="#inst-small" opacity="1" fill="dodgerblue" fill-opacity="1"></use>
        <g>
          <use xlink:href="#inst-small" opacity="1" fill-opacity="0" stroke="#000000" stroke-width="1" stroke-opacity="0"></use>
        </g>
  </g>
</svg>
