<?xml version="1.0" encoding="UTF-8" standalone="no"?>
<!DOCTYPE svg PUBLIC "-//W3C//DTD SVG 1.1//EN" "http://www.w3.org/Graphics/SVG/1.1/DTD/svg11.dtd">
<svg version="1.1" xmlns="http://www.w3.org/2000/svg" xmlns:xlink="http://www.w3.org/1999/xlink" preserveAspectRatio="xMidYMid meet" viewBox="0 0 640 520" width="640" height="520">
  <defs>
    <path d="M564.4 82.28C591.6 66.04 612.36 40.52 622.12 9.76C596.76 24.88 568.76 35.56 538.92 41.52C514.84 15.88 480.52 0 443.08 0C370.44 0 311.96 58.96 311.96 131.24C311.96 141.64 312.84 151.64 315 161.16C205.92 155.84 109.4 103.56 44.56 23.92C33.24 43.56 26.6 66.04 26.6 90.24C26.6 135.68 50 175.96 84.88 199.28C63.8 198.88 43.12 192.76 25.6 183.12C25.6 183.52 25.6 184.04 25.6 184.56C25.6 248.32 71.08 301.28 130.72 313.48C120.04 316.4 108.4 317.8 96.32 317.8C87.92 317.8 79.44 317.32 71.48 315.56C88.48 367.52 136.72 405.72 194.08 406.96C149.44 441.88 92.76 462.92 31.4 462.92C20.64 462.92 10.32 462.44 0 461.12C58.12 498.6 127 520 201.28 520C442.72 520 574.72 320 574.72 146.64C574.72 140.84 574.52 135.24 574.24 129.68C600.28 111.2 622.16 88.12 640 61.56C616.2 72 590.84 78.92 564.4 82.28Z" id="twitter"></path>
  </defs>
  <g>
    <use xlink:href="#twitter" opacity="1" fill="dodgerblue" fill-opacity="1"></use>
  </g>
</svg>
