<?xml version="1.0" encoding="UTF-8" standalone="no"?>
<!DOCTYPE svg PUBLIC "-//W3C//DTD SVG 1.1//EN" "http://www.w3.org/Graphics/SVG/1.1/DTD/svg11.dtd">
<svg version="1.1" xmlns="http://www.w3.org/2000/svg" xmlns:xlink="http://www.w3.org/1999/xlink" preserveAspectRatio="xMidYMid meet" viewBox="0 0 548 312.66" width="548" height="312.66">
  <defs>
    <path d="M543.24 278.8C533.73 261.68 515.56 240.66 488.74 215.74C488.7 215.7 488.52 215.51 488.18 215.17L487.89 214.89L487.6 214.6C487.43 214.6 487.34 214.6 487.32 214.6C475.14 203 467.44 195.2 464.21 191.2C458.3 183.59 456.98 175.89 460.21 168.09C462.49 162.19 471.05 149.74 485.89 130.71C493.69 120.63 499.87 112.55 504.43 106.46C537.34 62.71 551.61 34.75 547.23 22.58C547.06 22.29 545.7 20.02 545.53 19.73C544.39 18.02 541.44 16.45 536.69 15.03C531.93 13.6 525.84 13.36 518.42 14.31C510.21 14.37 444.47 14.82 436.25 14.88C434.92 14.41 433.02 14.45 430.55 15.03C428.07 15.6 426.84 15.88 426.84 15.88C426.74 15.93 426.26 16.17 425.41 16.6C424.72 17.11 424.35 17.4 424.27 17.46C423.32 18.02 422.27 19.02 421.13 20.45C419.99 21.87 419.04 23.54 418.28 25.44C409.34 48.46 399.17 69.86 387.75 89.64C380.71 101.43 374.25 111.66 368.35 120.31C362.45 128.96 357.5 135.34 353.51 139.42C349.52 143.52 345.91 146.79 342.67 149.27C339.43 151.74 336.96 152.79 335.25 152.41C333.54 152.02 331.93 151.64 330.4 151.27C327.74 149.55 325.6 147.22 323.98 144.27C322.36 141.33 321.27 137.62 320.7 133.15C320.13 128.67 319.8 124.83 319.7 121.59C319.61 118.36 319.65 113.79 319.85 107.89C320.04 101.99 320.13 98 320.13 95.91C320.13 88.68 320.27 80.84 320.56 72.37C320.84 63.91 321.08 57.2 321.27 52.26C321.46 47.31 321.55 42.08 321.55 36.56C321.55 31.05 321.22 26.72 320.56 23.58C319.9 20.45 318.89 17.4 317.57 14.45C316.23 11.5 314.28 9.22 311.72 7.6C309.15 5.99 305.96 4.7 302.16 3.75C292.08 1.47 279.24 0.23 263.64 0.04C228.26 -0.34 205.53 1.95 195.45 6.89C191.45 8.98 187.84 11.84 184.61 15.45C181.18 19.64 180.7 21.92 183.18 22.3C194.59 24.01 202.67 28.1 207.43 34.56C207.6 34.9 208.97 37.65 209.14 37.99C210.47 40.46 211.81 44.84 213.14 51.11C214.47 57.39 215.33 64.33 215.7 71.94C216.65 85.83 216.65 97.71 215.7 107.6C214.75 117.5 213.85 125.2 212.99 130.72C212.14 136.23 210.85 140.7 209.14 144.12C207.43 147.55 206.29 149.64 205.72 150.4C205.14 151.16 204.67 151.64 204.29 151.83C201.82 152.77 199.25 153.26 196.59 153.26C193.92 153.26 190.69 151.92 186.89 149.26C183.08 146.6 179.14 142.94 175.05 138.27C170.96 133.61 166.34 127.1 161.21 118.73C156.07 110.36 150.75 100.47 145.23 89.06C144.77 88.23 141.12 81.61 140.67 80.78C137.81 75.46 133.91 67.7 128.97 57.53C124.02 47.35 119.65 37.51 115.84 27.99C114.32 24 112.04 20.96 109 18.87C108.85 18.78 107.71 18.09 107.57 18.01C106.62 17.25 105.1 16.44 103 15.58C100.91 14.72 98.73 14.11 96.44 13.73C88.62 13.79 26.08 14.24 18.26 14.3C10.28 14.3 4.85 16.11 2 19.72C1.89 19.89 0.97 21.26 0.86 21.43C0.29 22.38 0 23.91 0 26C0 28.09 0.57 30.66 1.71 33.7C13.13 60.52 25.54 86.39 38.95 111.31C52.35 136.23 64.01 156.3 73.9 171.51C83.79 186.73 93.87 201.09 104.14 214.59C114.41 228.1 121.21 236.75 124.54 240.55C127.87 244.36 130.49 247.21 132.39 249.11C133.1 249.8 138.81 255.28 139.52 255.96C144.09 260.53 150.79 266 159.64 272.37C168.48 278.74 178.28 285.02 189.02 291.2C199.77 297.38 212.28 302.42 226.55 306.32C240.81 310.22 254.7 311.79 268.2 311.03C271.48 311.03 297.73 311.03 301.02 311.03C307.67 310.46 312.71 308.37 316.14 304.75C316.25 304.61 317.16 303.47 317.27 303.32C318.04 302.19 318.75 300.42 319.41 298.05C320.08 295.67 320.41 293.05 320.41 290.21C320.22 282.03 320.84 274.66 322.26 268.1C323.68 261.54 325.3 256.59 327.12 253.26C328.93 249.93 330.97 247.12 333.25 244.85C335.53 242.57 337.15 241.18 338.11 240.71C339.06 240.23 339.81 239.9 340.38 239.71C344.95 238.19 350.32 239.66 356.51 244.14C362.69 248.61 368.49 254.12 373.91 260.68C379.34 267.25 385.85 274.62 393.46 282.79C401.07 290.97 407.72 297.06 413.43 301.06C414 301.4 418.56 304.14 419.13 304.48C422.94 306.76 427.89 308.86 433.98 310.76C440.05 312.66 445.38 313.14 449.95 312.18C457.25 312.07 515.69 311.16 522.99 311.05C530.21 311.05 535.83 309.85 539.82 307.48C543.82 305.1 546.19 302.48 546.96 299.63C547.72 296.78 547.76 293.54 547.1 289.92C546.43 286.32 545.76 283.79 545.09 282.37C544.43 280.94 543.81 279.75 543.24 278.8Z" id="vk"></path>
  </defs>
  <g>
    <use xlink:href="#vk" opacity="1" fill="dodgerblue" fill-opacity="1"></use>
  </g>
</svg>
